<svg width="105" height="99" viewBox="0 0 105 99" fill="none" xmlns="http://www.w3.org/2000/svg">
<path d="M105 0.835269V0.805269C104.99 0.738754 104.973 0.673419 104.95 0.610269V0.555269C104.908 0.464124 104.852 0.379844 104.785 0.305269C104.751 0.262344 104.715 0.222214 104.675 0.185269L104.625 0.150269H104.6H104.565C104.502 0.109564 104.435 0.0760187 104.365 0.0502687H104.335C104.257 0.0255187 104.176 0.0104087 104.095 0.00526875H104C103.932 -0.00175625 103.863 -0.00175625 103.795 0.00526875H103.745C103.663 0.0252538 103.584 0.0554938 103.51 0.0952688L75.4998 15.7352C75.3298 15.8305 75.1914 15.9734 75.1015 16.1463C75.0116 16.3192 74.9742 16.5145 74.9939 16.7084C75.0135 16.9023 75.0894 17.0862 75.2121 17.2375C75.3349 17.3888 75.4992 17.501 75.6848 17.5602L82.9998 19.8952L85.8048 28.0052V28.0352C85.8264 28.0926 85.8532 28.1478 85.8848 28.2002L85.9248 28.2602C85.9564 28.3047 85.9915 28.3465 86.0298 28.3852L86.0748 28.4302C86.1272 28.476 86.1841 28.5163 86.2448 28.5502C86.3068 28.5837 86.3722 28.6105 86.4398 28.6302H86.4998C86.5751 28.6491 86.6522 28.6592 86.7298 28.6602C86.8248 28.6586 86.9191 28.6435 87.0098 28.6152H87.0548C87.1401 28.5846 87.2209 28.5426 87.2948 28.4902L87.3398 28.4552L87.4048 28.4052L93.0698 23.1252L99.6448 25.2302C99.7808 25.2738 99.9246 25.2877 100.066 25.271C100.208 25.2544 100.345 25.2075 100.467 25.1336C100.589 25.0597 100.694 24.9605 100.775 24.8426C100.856 24.7247 100.91 24.5909 100.935 24.4502L105 1.10527C105.012 1.01568 105.012 0.924854 105 0.835269ZM89.4498 21.9252L90.9048 22.4252L88.7198 24.4752L89.4498 21.9252ZM99.1598 22.9702L93.1298 21.0452L89.0948 19.7002H88.9898H88.9198H88.7248H88.5998H88.5348L88.4248 19.7452L88.3598 19.7752L88.2648 19.8352L88.1948 19.8802L88.1198 19.9502L87.9998 20.0052L87.9448 20.0802C87.9232 20.1091 87.9032 20.1392 87.8848 20.1702C87.8848 20.1702 87.8848 20.2202 87.8498 20.2502C87.8148 20.2802 87.8198 20.3052 87.8098 20.3352V20.3752L86.6548 24.3752L84.7048 18.7652C84.7048 18.7652 84.7048 18.7252 84.6798 18.7052C84.6665 18.6728 84.6515 18.6411 84.6348 18.6102L84.5848 18.5302L84.5248 18.4502L84.4598 18.3802L84.3898 18.3052L84.3098 18.2502L84.2298 18.2002L84.1298 18.1552L84.0698 18.1302L78.4998 16.3602L99.4998 4.59025L90.3698 15.1502C90.2238 15.3523 90.1586 15.6016 90.1868 15.8493C90.2151 16.0969 90.3348 16.3251 90.5226 16.4891C90.7103 16.6531 90.9526 16.741 91.2018 16.7357C91.451 16.7303 91.6893 16.6321 91.8698 16.4602L102.4 4.30525L99.1598 22.9702Z" fill="#F4F1E8"/>
<path d="M86.7089 34.9506C86.1625 38.2388 85.5312 64.3219 44.9526 72.7617C39.1575 73.9671 29.2157 72.1127 26.2666 68.8995C24.3191 66.3761 21.8913 60.2943 27.7607 56.154C33.63 52.0136 38.0684 57.4391 39.5539 60.6694C40.1479 62.824 39.6962 68.2668 33.138 72.8011C22.4893 80.1635 5.53096 81.196 4.32221 81.2124" stroke="#F4F1E8" stroke-width="1.5" stroke-linecap="round" stroke-dasharray="7 5"/>
</svg>
