<svg width="332" height="187" viewBox="0 0 332 187" fill="none" xmlns="http://www.w3.org/2000/svg">
<path d="M7.84 116.545V79.8253C7.84 76.7053 7.84 73.2653 3.84 72.7853C3.04 72.7053 2.56 72.1453 2.56 71.5053C2.56 70.7053 3.2 70.1453 4.16 70.2253C6 70.3053 8.24 70.3053 10 70.3053C11.84 70.3053 14.08 70.3053 15.92 70.2253C16.88 70.1453 17.52 70.7853 17.52 71.5053C17.52 72.2253 16.96 72.7053 16.24 72.7853C12.24 73.2653 12.32 76.7053 12.32 79.8253V116.545C12.32 119.665 12.24 123.265 16.24 123.745C17.04 123.905 17.52 124.385 17.52 125.025C17.52 125.905 16.72 126.385 15.92 126.385C14 126.225 11.84 126.305 10.08 126.305C8.24 126.305 6.08 126.305 4.24 126.385C3.2 126.465 2.56 125.825 2.56 125.105C2.56 124.465 3.04 123.905 3.84 123.745C7.84 123.265 7.84 119.745 7.84 116.545ZM51.2019 69.9853C52.0019 69.9853 52.4819 70.4653 52.4819 71.1053L52.0819 80.2253C52.0819 80.7053 51.6019 80.9453 51.2019 80.9453C50.5619 80.9453 50.2419 80.6253 50.2419 80.2253C50.2419 77.0253 50.4019 72.3853 44.9619 72.3853H41.6819C40.4819 72.3853 39.8419 73.1853 39.8419 74.1453V116.545C39.8419 119.825 39.6019 123.185 43.7619 123.825C44.5619 123.905 45.0419 124.465 45.0419 125.025C45.0419 125.905 44.2419 126.385 43.3619 126.385C41.7619 126.305 39.6019 126.305 37.7619 126.305C35.3619 126.305 33.2019 126.305 31.8419 126.385C30.8019 126.465 30.0819 125.905 30.0819 125.105C30.0819 124.465 30.4819 123.905 31.2819 123.745C35.5219 123.185 35.3619 119.745 35.3619 116.545V74.1453C35.3619 73.1853 34.5619 72.3853 33.3619 72.3853H30.8819C25.1219 72.3853 24.7219 76.7853 24.2419 80.2253C24.1619 80.6253 23.8419 80.9453 23.2819 80.9453C22.6419 80.9453 22.3219 80.5453 22.3219 80.0653L22.8819 71.0253C22.8819 70.3853 23.4419 69.9853 24.1619 69.9853C29.2819 70.3053 32.6419 70.3053 37.8419 70.3053C43.0419 70.3053 46.0819 70.3053 51.2019 69.9853ZM62.7212 116.545V79.8253C62.7212 76.7053 62.7212 73.2653 58.7212 72.7853C57.9212 72.7053 57.4412 72.1453 57.4412 71.5053C57.4412 70.7053 58.0812 70.1453 59.0412 70.2253C60.8812 70.3053 63.1212 70.3053 64.8812 70.3053C66.7212 70.3053 68.9612 70.3053 70.8012 70.2253C71.7612 70.1453 72.4012 70.7853 72.4012 71.5053C72.4012 72.2253 71.8412 72.7053 71.1212 72.7853C67.1212 73.2653 67.2012 76.7053 67.2012 79.8253V116.545C67.2012 119.665 67.1212 123.265 71.1212 123.745C71.9212 123.905 72.4012 124.385 72.4012 125.025C72.4012 125.905 71.6012 126.385 70.8012 126.385C68.8812 126.225 66.7212 126.305 64.9612 126.305C63.1212 126.305 60.9612 126.305 59.1212 126.385C58.0812 126.465 57.4412 125.825 57.4412 125.105C57.4412 124.465 57.9212 123.905 58.7212 123.745C62.7212 123.265 62.7212 119.745 62.7212 116.545ZM119.603 71.5053C119.683 72.1453 119.203 72.7053 118.323 72.8653C113.763 73.3453 114.323 76.7853 114.323 80.0653V116.545C114.323 119.745 113.683 123.265 118.323 123.745C119.203 123.905 119.683 124.465 119.603 125.105C119.603 125.905 118.803 126.385 118.003 126.385C116.803 126.305 115.283 126.305 113.603 126.305C111.603 126.305 110.003 126.305 108.003 126.385C107.043 126.385 106.323 125.825 106.243 125.105C106.243 124.465 106.723 123.825 107.523 123.745C111.923 123.105 111.603 120.145 111.603 116.705V94.6253C111.603 94.1453 111.283 93.5853 110.803 93.2653L88.0831 76.9453C87.6831 76.6253 87.0431 76.7853 87.0431 77.4253V116.225C87.0431 119.665 86.4031 123.185 90.9631 123.745C91.7631 123.905 92.2431 124.385 92.2431 125.025C92.2431 125.825 91.5231 126.385 90.6431 126.385C89.4431 126.305 87.3631 126.305 85.4431 126.305C83.2031 126.305 81.7631 126.305 79.9231 126.385C79.0431 126.385 78.3231 125.825 78.3231 125.025C78.3231 124.385 78.8031 123.905 79.6031 123.745C84.5631 123.265 84.3231 119.905 84.3231 116.145V80.1453C84.3231 75.9853 83.2831 73.1853 78.5631 72.7853C77.8431 72.7053 77.3631 72.2253 77.3631 71.5053C77.3631 70.8653 78.0031 70.3053 78.8831 70.3053C79.9231 70.3853 81.2031 70.3053 81.8431 70.3053C82.9631 70.3053 84.2431 70.3053 85.3631 70.2253C85.8431 70.1453 86.3231 70.3053 86.7231 70.5453L110.643 87.9853C110.963 88.3053 111.603 88.0653 111.603 87.5853V79.9053C111.603 76.4653 111.843 73.5053 107.523 72.8653C106.723 72.7053 106.243 72.2253 106.243 71.5053C106.323 70.7053 106.963 70.2253 107.923 70.2253C109.123 70.3053 110.563 70.3053 112.403 70.3053C114.323 70.3053 115.923 70.3053 117.923 70.2253C118.883 70.2253 119.603 70.7053 119.603 71.5053ZM150.344 113.665C151.064 113.665 151.464 114.225 151.384 114.785C150.824 117.265 149.784 122.785 149.304 125.265C149.224 125.985 148.504 126.465 147.624 126.465C143.384 126.385 142.024 126.305 137.864 126.305C133.784 126.305 129.544 126.385 125.464 126.465C124.664 126.465 124.024 125.905 124.024 125.185C124.024 124.545 124.504 123.985 125.224 123.905C128.744 123.345 128.904 120.385 128.904 117.025V79.5053C128.904 76.3853 129.144 73.1853 125.304 72.7853C124.504 72.7053 124.024 72.1453 124.024 71.5053C124.024 70.7053 124.664 70.1453 125.464 70.1453C129.064 70.3053 132.344 70.3053 136.184 70.3053C140.184 70.3053 144.264 70.2253 148.024 70.1453C148.824 70.1453 149.304 70.6253 149.304 71.2653V81.8253C149.304 82.2253 148.904 82.7053 148.264 82.7053C147.624 82.7053 147.304 82.2253 147.224 81.8253C146.904 77.0253 147.144 72.6253 139.864 72.6253H135.144C134.024 72.6253 133.384 73.2653 133.384 74.2253V94.8653C133.384 95.5853 133.864 96.1453 134.744 96.1453H140.904C144.664 96.1453 144.664 92.5453 144.664 90.0653C144.664 89.6653 145.064 89.2653 145.704 89.2653C146.424 89.2653 146.744 89.6653 146.744 90.0653V105.105C146.744 105.505 146.344 105.905 145.704 105.905C145.064 105.905 144.664 105.505 144.664 105.025C144.744 102.385 144.984 98.2253 140.824 98.2253H134.744C133.864 98.2253 133.384 98.7853 133.384 99.5053V116.305C133.384 122.705 134.904 124.225 140.024 124.225C147.384 124.225 148.104 119.425 149.224 114.465C149.304 114.065 149.704 113.665 150.344 113.665ZM170.168 98.3053C176.728 98.3053 179.368 91.1053 179.368 85.5053C179.368 79.9053 177.688 72.1453 169.208 72.1453C168.488 72.1453 167.368 72.2253 166.728 72.3053C165.447 72.4653 165.128 73.1853 165.128 74.0653V94.6253C165.128 97.1853 167.688 98.3053 170.168 98.3053ZM191.288 123.905C192.168 123.985 192.648 124.465 192.648 125.105C192.648 125.825 192.008 126.385 191.208 126.385C190.248 126.305 189.288 126.305 188.408 126.305C187.448 126.305 186.168 126.305 185.128 126.385C184.488 126.465 183.848 126.145 183.608 125.665L170.968 100.945C170.808 100.545 170.328 100.305 169.848 100.385C168.568 100.385 167.448 100.305 166.168 100.145C165.608 100.065 165.128 100.465 165.128 100.945V116.625C165.128 119.905 164.888 123.185 169.128 123.745C169.848 123.905 170.328 124.385 170.328 125.025C170.408 125.745 169.688 126.385 168.728 126.385C166.728 126.305 165.048 126.305 162.808 126.305C161.448 126.305 159.128 126.225 157.128 126.385C156.088 126.465 155.368 125.825 155.368 125.105C155.368 124.465 155.848 123.905 156.648 123.825C160.888 123.185 160.648 119.825 160.648 116.545V79.5853C160.648 76.1453 160.888 73.2653 156.728 72.7853C155.848 72.7053 155.368 72.0653 155.448 71.4253C155.528 70.7053 156.168 70.2253 157.048 70.2253C159.768 70.3053 160.248 70.3053 163.288 70.3053C165.128 70.3053 167.768 70.1453 170.168 70.1453C180.408 70.1453 184.168 78.5453 184.168 84.7853C184.168 90.4653 182.248 96.5453 175.928 99.0253C175.448 99.2653 175.208 99.7453 175.448 100.225L186.568 121.265C187.528 123.105 189.128 123.745 191.288 123.905ZM213.611 78.1453L207.131 104.465C207.051 104.865 207.211 105.185 207.771 105.185H219.211C219.691 105.185 219.931 104.865 219.851 104.465L213.611 78.1453ZM215.851 69.9853L227.131 117.265C227.771 120.145 228.411 122.545 232.251 123.585C233.051 123.825 233.371 124.385 233.291 125.025C233.291 125.745 232.571 126.305 231.611 126.305C228.011 126.305 224.491 126.305 220.891 126.305C219.931 126.305 219.371 125.745 219.371 125.025C219.371 124.385 219.771 123.825 220.571 123.745C221.691 123.665 222.891 123.345 223.291 122.385C223.851 121.025 222.891 117.585 222.571 116.145L220.651 108.065C220.571 107.665 220.251 107.345 219.691 107.345H207.211C206.651 107.345 206.331 107.585 206.251 108.065L204.251 116.305C203.691 118.465 203.291 120.705 203.771 121.985C204.091 122.945 205.131 123.505 206.571 123.665C207.371 123.825 207.851 124.305 207.851 124.945C207.851 125.745 207.211 126.305 206.251 126.305C205.211 126.225 202.731 126.225 201.531 126.225C199.611 126.225 198.411 126.225 197.131 126.305C196.091 126.305 195.451 125.665 195.371 124.865C195.371 124.225 195.771 123.665 196.571 123.425C200.171 122.705 200.811 118.545 201.451 115.985L212.811 69.9853C212.971 69.3453 213.531 68.8653 214.331 68.8653C215.051 68.8653 215.691 69.3453 215.851 69.9853Z" fill="#F4F1E8"/>
<path d="M15.9 147.655H20.1C20.4 147.655 20.6 147.805 20.55 148.055C20.5 148.255 20.25 148.455 19.95 148.455H15.75C15.35 148.455 15.15 148.755 15.1 149.005L11.65 167.905C11.6 168.205 12 168.305 12.15 168.105L15.85 163.555C16 163.405 16.25 163.355 16.45 163.505C16.65 163.605 16.65 163.805 16.55 163.955L14.65 166.655C14.05 167.455 12.25 170.105 10.8 170.105C10 170.105 9.55 169.055 9.5 168.055C9.5 167.505 9.6 166.955 9.7 166.405C9.75 166.105 12.85 149.005 12.85 149.005C12.9 148.755 12.75 148.455 12.35 148.455H11.25C10.9 148.455 10.7 148.255 10.75 147.955C10.8 147.755 10.95 147.555 11.25 147.505C13.7 146.905 14.65 144.505 15.05 142.355C15.1 142.155 15.25 141.905 15.75 141.905C16.2 141.905 16.35 142.155 16.3 142.405L15.45 147.055C15.4 147.355 15.55 147.655 15.9 147.655ZM33.5258 146.505C35.1758 146.505 35.4758 147.655 35.3758 148.555C35.2258 149.555 34.6258 150.455 33.5258 150.455C32.4758 150.455 32.6758 149.005 31.4258 149.005C27.4758 149.005 25.0258 159.355 24.4758 161.705L23.1258 168.855C23.0758 169.105 22.8758 169.305 22.5758 169.305H21.7258C21.3258 169.305 21.0758 169.005 21.1258 168.705C21.5758 166.455 23.4758 155.905 23.4758 155.905L24.9758 148.455C25.0258 148.205 24.6758 148.105 24.5258 148.305L20.5758 152.905C20.4258 153.055 20.1758 153.105 19.9758 152.955C19.8258 152.855 19.7758 152.655 19.8758 152.505L21.7758 149.805C22.4258 149.055 24.0258 146.355 25.4758 146.355C26.2758 146.355 26.6758 147.455 26.7258 148.405C26.7258 148.955 26.6258 149.505 26.5258 150.055C26.5258 150.055 25.8258 153.555 25.7758 153.755C25.7258 154.005 26.0758 154.055 26.1758 153.855C29.0258 147.555 32.1758 146.505 33.5258 146.505ZM46.7441 155.405L46.8441 154.655C47.1441 152.905 47.7941 147.455 44.0441 147.455C38.6441 147.455 36.3441 159.155 36.5441 163.255C36.6441 164.655 36.7441 167.355 38.8941 167.355C43.1441 167.355 46.2441 158.005 46.7441 155.405ZM51.3941 163.555C51.6441 163.655 51.6941 163.905 51.5941 164.055C51.1941 164.605 50.2441 165.955 49.2441 167.255C48.0441 168.755 46.6941 170.205 45.9441 170.205C45.2441 170.205 44.8941 169.355 44.8441 168.255C44.7941 167.205 44.8441 165.705 45.1441 163.905C45.1941 163.655 44.7941 163.555 44.6941 163.805C43.3941 166.755 41.2941 170.205 38.2941 170.205C34.5941 170.205 34.1941 166.055 34.0941 164.055C33.8941 159.555 37.7941 146.405 44.3941 146.405C46.3941 146.405 47.4941 147.205 48.1941 148.855C48.2441 149.055 48.5941 149.155 48.7441 148.905L49.4441 147.505C49.5441 147.355 49.6441 147.255 49.8941 147.255C50.1941 147.255 50.3941 147.505 50.3441 147.755L46.4941 167.855C46.4441 168.205 46.9941 168.405 47.1941 168.155L50.7941 163.705C50.9441 163.505 51.1941 163.455 51.3941 163.555ZM64.543 146.405C67.343 146.405 69.493 149.405 69.243 154.655C68.843 163.455 63.693 170.155 59.193 170.155C55.943 170.155 53.543 168.205 55.043 161.855L57.743 148.505C57.793 148.255 57.443 148.105 57.293 148.305L53.443 152.905C53.293 153.055 53.043 153.155 52.843 153.005C52.693 152.855 52.643 152.655 52.743 152.555L54.643 149.855C55.293 149.055 56.893 146.405 58.343 146.405C59.143 146.405 59.593 147.455 59.643 148.405C59.693 148.955 59.543 149.555 59.493 150.105C59.393 150.405 57.143 161.255 57.143 161.255C56.343 165.405 56.893 167.455 59.443 167.455C63.793 167.455 68.193 161.955 68.343 154.655C68.443 150.155 66.843 148.255 65.893 148.255C64.193 148.255 63.943 149.755 62.943 149.755C62.343 149.755 61.643 148.955 61.893 147.905C62.193 146.755 63.593 146.405 64.543 146.405ZM79.9629 147.555C76.1629 147.555 74.0629 153.705 73.4129 156.955C73.3629 157.255 73.6129 157.505 73.9629 157.455C78.3629 156.705 82.8129 154.705 82.6129 150.655C82.5129 149.105 81.9129 147.555 79.9629 147.555ZM82.8629 164.455C83.0629 164.505 83.1129 164.755 83.0129 164.905C81.7629 166.905 79.0129 170.155 75.8629 170.155C70.4629 170.155 70.7129 161.905 71.2629 159.005C71.8629 155.555 74.5629 146.355 80.4129 146.355C83.2629 146.355 84.5129 148.505 84.6129 150.705C84.8629 155.755 79.0629 157.505 73.7129 158.055C73.4129 158.055 73.2129 158.255 73.1629 158.505C73.1629 158.655 73.1629 158.805 73.1129 159.005C72.8129 161.355 72.7129 167.405 77.0629 167.405C79.3629 167.405 81.0629 166.055 82.2129 164.655C82.3629 164.455 82.6129 164.305 82.8629 164.455ZM95.2055 131.355C95.5555 131.455 95.8055 131.755 95.7055 132.105C95.3555 133.605 95.0555 134.905 94.8055 136.455L88.9055 168.005C88.8555 168.305 89.2055 168.355 89.3055 168.205L93.0555 163.605C93.2055 163.405 93.5055 163.355 93.7555 163.505C93.9555 163.655 93.9555 163.855 93.8555 164.005L91.9555 166.705C91.3055 167.505 89.7055 170.155 88.2555 170.155C87.4555 170.155 87.0055 169.105 86.9555 168.105C86.9555 167.555 87.0555 167.005 87.1055 166.455C87.5555 164.055 92.4055 138.255 92.4055 138.255C92.6555 136.805 93.2555 134.755 90.5055 134.605C90.3055 134.605 90.1055 134.505 90.0055 134.405C89.8555 134.205 89.8555 133.905 90.1055 133.705C91.1555 132.705 93.4555 131.455 94.7055 131.355C94.8555 131.305 95.0555 131.355 95.2055 131.355ZM118.498 169.105C124.348 169.105 126.198 157.405 125.998 153.305C125.948 151.905 125.698 149.105 123.548 149.105C119.198 149.105 116.648 155.755 115.798 160.155L115.398 161.905C115.048 163.655 114.748 169.105 118.498 169.105ZM123.948 146.355C127.648 146.355 128.048 150.505 128.148 152.505C128.348 157.005 125.148 170.155 118.148 170.155C116.948 170.155 115.348 169.605 114.648 168.305C114.548 168.155 114.248 168.155 114.198 168.355L112.648 176.505C112.398 177.955 111.998 179.405 113.898 179.655C114.248 179.655 114.448 179.955 114.398 180.205C114.298 180.555 113.948 180.855 113.498 180.855C112.648 180.805 111.798 180.755 110.948 180.755C110.048 180.755 109.148 180.805 108.248 180.855C107.798 180.855 107.498 180.555 107.548 180.205C107.598 179.955 107.898 179.655 108.248 179.655C110.248 179.405 110.398 177.955 110.648 176.505L115.698 148.455C115.748 148.205 115.398 148.105 115.248 148.305L111.448 152.905C111.298 153.055 110.998 153.105 110.798 153.005C110.648 152.855 110.598 152.655 110.698 152.505L112.598 149.805C113.248 149.005 114.848 146.355 116.348 146.355C117.098 146.355 117.548 147.455 117.598 148.405C117.598 148.955 117.498 149.505 117.398 150.055C117.348 150.355 116.898 152.855 116.648 154.105C116.598 154.355 116.948 154.405 116.998 154.255C118.298 151.005 120.548 146.355 123.948 146.355ZM138.907 131.355C139.257 131.455 139.507 131.755 139.407 132.105C139.057 133.605 138.757 134.905 138.507 136.455L132.607 168.005C132.557 168.305 132.907 168.355 133.007 168.205L136.757 163.605C136.907 163.405 137.207 163.355 137.457 163.505C137.657 163.655 137.657 163.855 137.557 164.005L135.657 166.705C135.007 167.505 133.407 170.155 131.957 170.155C131.157 170.155 130.707 169.105 130.657 168.105C130.657 167.555 130.757 167.005 130.807 166.455C131.257 164.055 136.107 138.255 136.107 138.255C136.357 136.805 136.957 134.755 134.207 134.605C134.007 134.605 133.807 134.505 133.707 134.405C133.557 134.205 133.557 133.905 133.807 133.705C134.857 132.705 137.157 131.455 138.407 131.355C138.557 131.305 138.757 131.355 138.907 131.355ZM152.359 155.405L152.459 154.655C152.759 152.905 153.409 147.455 149.659 147.455C144.259 147.455 141.959 159.155 142.159 163.255C142.259 164.655 142.359 167.355 144.509 167.355C148.759 167.355 151.859 158.005 152.359 155.405ZM157.009 163.555C157.259 163.655 157.309 163.905 157.209 164.055C156.809 164.605 155.859 165.955 154.859 167.255C153.659 168.755 152.309 170.205 151.559 170.205C150.859 170.205 150.509 169.355 150.459 168.255C150.409 167.205 150.459 165.705 150.759 163.905C150.809 163.655 150.409 163.555 150.309 163.805C149.009 166.755 146.909 170.205 143.909 170.205C140.209 170.205 139.809 166.055 139.709 164.055C139.509 159.555 143.409 146.405 150.009 146.405C152.009 146.405 153.109 147.205 153.809 148.855C153.859 149.055 154.209 149.155 154.359 148.905L155.059 147.505C155.159 147.355 155.259 147.255 155.509 147.255C155.809 147.255 156.009 147.505 155.959 147.755L152.109 167.855C152.059 168.205 152.609 168.405 152.809 168.155L156.409 163.705C156.559 163.505 156.809 163.455 157.009 163.555ZM177.207 163.555C177.407 163.655 177.407 163.855 177.307 164.005L175.407 166.705C174.757 167.505 173.157 170.155 171.707 170.155C170.907 170.155 170.557 169.105 170.507 168.105C170.457 167.555 170.557 167.005 170.657 166.455C170.807 165.705 173.607 151.805 173.607 151.805C173.857 150.905 173.957 149.105 172.207 149.105C166.807 149.105 163.607 158.105 162.807 162.605L161.707 168.905C161.657 169.155 161.457 169.305 161.157 169.305H160.257C159.857 169.305 159.607 169.005 159.657 168.705C160.857 161.855 161.957 155.205 163.307 148.455C163.357 148.205 163.007 148.105 162.857 148.305L158.907 152.905C158.757 153.055 158.507 153.105 158.307 152.955C158.157 152.855 158.107 152.655 158.207 152.505L160.107 149.805C160.757 149.005 162.557 146.355 164.007 146.355C164.807 146.355 165.157 147.405 165.207 148.355C165.207 148.955 165.107 149.505 165.007 150.055C164.957 150.405 164.257 154.055 164.057 155.055C164.057 155.255 164.307 155.305 164.357 155.155C165.807 152.005 169.057 146.355 173.007 146.355C176.357 146.355 176.007 149.805 175.657 151.555L172.307 168.055C172.257 168.305 172.607 168.405 172.757 168.255L176.657 163.605C176.757 163.455 177.007 163.405 177.207 163.555ZM197.568 163.555C197.768 163.655 197.768 163.855 197.668 164.005L195.768 166.705C195.118 167.505 193.518 170.155 192.068 170.155C191.268 170.155 190.918 169.105 190.868 168.105C190.818 167.555 190.918 167.005 191.018 166.455C191.168 165.705 193.968 151.805 193.968 151.805C194.218 150.905 194.318 149.105 192.568 149.105C187.168 149.105 183.968 158.105 183.168 162.605L182.068 168.905C182.018 169.155 181.818 169.305 181.518 169.305H180.618C180.218 169.305 179.968 169.005 180.018 168.705C181.218 161.855 182.318 155.205 183.668 148.455C183.718 148.205 183.368 148.105 183.218 148.305L179.268 152.905C179.118 153.055 178.868 153.105 178.668 152.955C178.518 152.855 178.468 152.655 178.568 152.505L180.468 149.805C181.118 149.005 182.918 146.355 184.368 146.355C185.168 146.355 185.518 147.405 185.568 148.355C185.568 148.955 185.468 149.505 185.368 150.055C185.318 150.405 184.618 154.055 184.418 155.055C184.418 155.255 184.668 155.305 184.718 155.155C186.168 152.005 189.418 146.355 193.368 146.355C196.718 146.355 196.368 149.805 196.018 151.555L192.668 168.055C192.618 168.305 192.968 168.405 193.118 168.255L197.018 163.605C197.118 163.455 197.368 163.405 197.568 163.555ZM208.43 147.555C204.63 147.555 202.53 153.705 201.88 156.955C201.83 157.255 202.08 157.505 202.43 157.455C206.83 156.705 211.28 154.705 211.08 150.655C210.98 149.105 210.38 147.555 208.43 147.555ZM211.33 164.455C211.53 164.505 211.58 164.755 211.48 164.905C210.23 166.905 207.48 170.155 204.33 170.155C198.93 170.155 199.18 161.905 199.73 159.005C200.33 155.555 203.03 146.355 208.88 146.355C211.73 146.355 212.98 148.505 213.08 150.705C213.33 155.755 207.53 157.505 202.18 158.055C201.88 158.055 201.68 158.255 201.63 158.505C201.63 158.655 201.63 158.805 201.58 159.005C201.28 161.355 201.18 167.405 205.53 167.405C207.83 167.405 209.53 166.055 210.68 164.655C210.83 164.455 211.08 164.305 211.33 164.455ZM228.204 146.505C229.854 146.505 230.154 147.655 230.054 148.555C229.904 149.555 229.304 150.455 228.204 150.455C227.154 150.455 227.354 149.005 226.104 149.005C222.154 149.005 219.704 159.355 219.154 161.705L217.804 168.855C217.754 169.105 217.554 169.305 217.254 169.305H216.404C216.004 169.305 215.754 169.005 215.804 168.705C216.254 166.455 218.154 155.905 218.154 155.905L219.654 148.455C219.704 148.205 219.354 148.105 219.204 148.305L215.254 152.905C215.104 153.055 214.854 153.105 214.654 152.955C214.504 152.855 214.454 152.655 214.554 152.505L216.454 149.805C217.104 149.055 218.704 146.355 220.154 146.355C220.954 146.355 221.354 147.455 221.404 148.405C221.404 148.955 221.304 149.505 221.204 150.055C221.204 150.055 220.504 153.555 220.454 153.755C220.404 154.005 220.754 154.055 220.854 153.855C223.704 147.555 226.854 146.505 228.204 146.505Z" fill="#F4F1E8"/>
<path d="M332 0.835269V0.805269C331.99 0.738754 331.973 0.673419 331.95 0.610269V0.555269C331.908 0.464124 331.852 0.379844 331.785 0.305269C331.751 0.262344 331.715 0.222214 331.675 0.185269L331.625 0.150269H331.6H331.565C331.502 0.109564 331.435 0.0760187 331.365 0.0502687H331.335C331.257 0.0255187 331.176 0.0104087 331.095 0.00526875H331C330.932 -0.00175625 330.863 -0.00175625 330.795 0.00526875H330.745C330.663 0.0252538 330.584 0.0554938 330.51 0.0952688L302.5 15.7352C302.33 15.8305 302.191 15.9734 302.102 16.1463C302.012 16.3192 301.974 16.5145 301.994 16.7084C302.014 16.9023 302.089 17.0862 302.212 17.2375C302.335 17.3888 302.499 17.501 302.685 17.5602L310 19.8952L312.805 28.0052V28.0352C312.826 28.0926 312.853 28.1478 312.885 28.2002L312.925 28.2602C312.956 28.3047 312.991 28.3465 313.03 28.3852L313.075 28.4302C313.127 28.476 313.184 28.5163 313.245 28.5502C313.307 28.5837 313.372 28.6105 313.44 28.6302H313.5C313.575 28.6491 313.652 28.6592 313.73 28.6602C313.825 28.6586 313.919 28.6435 314.01 28.6152H314.055C314.14 28.5846 314.221 28.5426 314.295 28.4902L314.34 28.4552L314.405 28.4052L320.07 23.1252L326.645 25.2302C326.781 25.2738 326.925 25.2877 327.066 25.271C327.208 25.2544 327.345 25.2075 327.467 25.1336C327.589 25.0597 327.694 24.9605 327.775 24.8426C327.856 24.7247 327.91 24.5909 327.935 24.4502L332 1.10527C332.012 1.01568 332.012 0.924854 332 0.835269ZM316.45 21.9252L317.905 22.4252L315.72 24.4752L316.45 21.9252ZM326.16 22.9702L320.13 21.0452L316.095 19.7002H315.99H315.92H315.725H315.6H315.535L315.425 19.7452L315.36 19.7752L315.265 19.8352L315.195 19.8802L315.12 19.9502L315 20.0052L314.945 20.0802C314.923 20.1091 314.903 20.1392 314.885 20.1702C314.885 20.1702 314.885 20.2202 314.85 20.2502C314.815 20.2802 314.82 20.3052 314.81 20.3352V20.3752L313.655 24.3752L311.705 18.7652C311.705 18.7652 311.705 18.7252 311.68 18.7052C311.666 18.6728 311.651 18.6411 311.635 18.6102L311.585 18.5302L311.525 18.4502L311.46 18.3802L311.39 18.3052L311.31 18.2502L311.23 18.2002L311.13 18.1552L311.07 18.1302L305.5 16.3602L326.5 4.59025L317.37 15.1502C317.224 15.3523 317.159 15.6016 317.187 15.8493C317.215 16.0969 317.335 16.3251 317.523 16.4891C317.71 16.6531 317.953 16.741 318.202 16.7357C318.451 16.7303 318.689 16.6321 318.87 16.4602L329.4 4.30525L326.16 22.9702Z" fill="#F4F1E8"/>
<path d="M313.709 34.9506C313.162 38.2388 312.531 64.3219 271.953 72.7617C266.157 73.9671 256.216 72.1127 253.267 68.8995C251.319 66.3761 248.891 60.2943 254.761 56.154C260.63 52.0136 265.068 57.4391 266.554 60.6694C267.148 62.824 266.696 68.2668 260.138 72.8011C249.489 80.1635 232.531 81.196 231.322 81.2124" stroke="#F4F1E8" stroke-width="1.5" stroke-linecap="round" stroke-dasharray="7 5"/>
</svg>
