<svg width="235" height="133" viewBox="0 0 235 133" fill="none" xmlns="http://www.w3.org/2000/svg">
<path d="M7.84 62.5453V25.8253C7.84 22.7053 7.84 19.2653 3.84 18.7853C3.04 18.7053 2.56 18.1453 2.56 17.5053C2.56 16.7053 3.2 16.1453 4.16 16.2253C6 16.3053 8.24 16.3053 10 16.3053C11.84 16.3053 14.08 16.3053 15.92 16.2253C16.88 16.1453 17.52 16.7853 17.52 17.5053C17.52 18.2253 16.96 18.7053 16.24 18.7853C12.24 19.2653 12.32 22.7053 12.32 25.8253V62.5453C12.32 65.6653 12.24 69.2653 16.24 69.7453C17.04 69.9053 17.52 70.3853 17.52 71.0253C17.52 71.9053 16.72 72.3853 15.92 72.3853C14 72.2253 11.84 72.3053 10.08 72.3053C8.24 72.3053 6.08 72.3053 4.24 72.3853C3.2 72.4653 2.56 71.8253 2.56 71.1053C2.56 70.4653 3.04 69.9053 3.84 69.7453C7.84 69.2653 7.84 65.7453 7.84 62.5453ZM51.2019 15.9853C52.0019 15.9853 52.4819 16.4653 52.4819 17.1053L52.0819 26.2253C52.0819 26.7053 51.6019 26.9453 51.2019 26.9453C50.5619 26.9453 50.2419 26.6253 50.2419 26.2253C50.2419 23.0253 50.4019 18.3853 44.9619 18.3853H41.6819C40.4819 18.3853 39.8419 19.1853 39.8419 20.1453V62.5453C39.8419 65.8253 39.6019 69.1853 43.7619 69.8253C44.5619 69.9053 45.0419 70.4653 45.0419 71.0253C45.0419 71.9053 44.2419 72.3853 43.3619 72.3853C41.7619 72.3053 39.6019 72.3053 37.7619 72.3053C35.3619 72.3053 33.2019 72.3053 31.8419 72.3853C30.8019 72.4653 30.0819 71.9053 30.0819 71.1053C30.0819 70.4653 30.4819 69.9053 31.2819 69.7453C35.5219 69.1853 35.3619 65.7453 35.3619 62.5453V20.1453C35.3619 19.1853 34.5619 18.3853 33.3619 18.3853H30.8819C25.1219 18.3853 24.7219 22.7853 24.2419 26.2253C24.1619 26.6253 23.8419 26.9453 23.2819 26.9453C22.6419 26.9453 22.3219 26.5453 22.3219 26.0653L22.8819 17.0253C22.8819 16.3853 23.4419 15.9853 24.1619 15.9853C29.2819 16.3053 32.6419 16.3053 37.8419 16.3053C43.0419 16.3053 46.0819 16.3053 51.2019 15.9853ZM62.7212 62.5453V25.8253C62.7212 22.7053 62.7212 19.2653 58.7212 18.7853C57.9212 18.7053 57.4412 18.1453 57.4412 17.5053C57.4412 16.7053 58.0812 16.1453 59.0412 16.2253C60.8812 16.3053 63.1212 16.3053 64.8812 16.3053C66.7212 16.3053 68.9612 16.3053 70.8012 16.2253C71.7612 16.1453 72.4012 16.7853 72.4012 17.5053C72.4012 18.2253 71.8412 18.7053 71.1212 18.7853C67.1212 19.2653 67.2012 22.7053 67.2012 25.8253V62.5453C67.2012 65.6653 67.1212 69.2653 71.1212 69.7453C71.9212 69.9053 72.4012 70.3853 72.4012 71.0253C72.4012 71.9053 71.6012 72.3853 70.8012 72.3853C68.8812 72.2253 66.7212 72.3053 64.9612 72.3053C63.1212 72.3053 60.9612 72.3053 59.1212 72.3853C58.0812 72.4653 57.4412 71.8253 57.4412 71.1053C57.4412 70.4653 57.9212 69.9053 58.7212 69.7453C62.7212 69.2653 62.7212 65.7453 62.7212 62.5453ZM119.603 17.5053C119.683 18.1453 119.203 18.7053 118.323 18.8653C113.763 19.3453 114.323 22.7853 114.323 26.0653V62.5453C114.323 65.7453 113.683 69.2653 118.323 69.7453C119.203 69.9053 119.683 70.4653 119.603 71.1053C119.603 71.9053 118.803 72.3853 118.003 72.3853C116.803 72.3053 115.283 72.3053 113.603 72.3053C111.603 72.3053 110.003 72.3053 108.003 72.3853C107.043 72.3853 106.323 71.8253 106.243 71.1053C106.243 70.4653 106.723 69.8253 107.523 69.7453C111.923 69.1053 111.603 66.1453 111.603 62.7053V40.6253C111.603 40.1453 111.283 39.5853 110.803 39.2653L88.0831 22.9453C87.6831 22.6253 87.0431 22.7853 87.0431 23.4253V62.2253C87.0431 65.6653 86.4031 69.1853 90.9631 69.7453C91.7631 69.9053 92.2431 70.3853 92.2431 71.0253C92.2431 71.8253 91.5231 72.3853 90.6431 72.3853C89.4431 72.3053 87.3631 72.3053 85.4431 72.3053C83.2031 72.3053 81.7631 72.3053 79.9231 72.3853C79.0431 72.3853 78.3231 71.8253 78.3231 71.0253C78.3231 70.3853 78.8031 69.9053 79.6031 69.7453C84.5631 69.2653 84.3231 65.9053 84.3231 62.1453V26.1453C84.3231 21.9853 83.2831 19.1853 78.5631 18.7853C77.8431 18.7053 77.3631 18.2253 77.3631 17.5053C77.3631 16.8653 78.0031 16.3053 78.8831 16.3053C79.9231 16.3853 81.2031 16.3053 81.8431 16.3053C82.9631 16.3053 84.2431 16.3053 85.3631 16.2253C85.8431 16.1453 86.3231 16.3053 86.7231 16.5453L110.643 33.9853C110.963 34.3053 111.603 34.0653 111.603 33.5853V25.9053C111.603 22.4653 111.843 19.5053 107.523 18.8653C106.723 18.7053 106.243 18.2253 106.243 17.5053C106.323 16.7053 106.963 16.2253 107.923 16.2253C109.123 16.3053 110.563 16.3053 112.403 16.3053C114.323 16.3053 115.923 16.3053 117.923 16.2253C118.883 16.2253 119.603 16.7053 119.603 17.5053ZM150.344 59.6653C151.064 59.6653 151.464 60.2253 151.384 60.7853C150.824 63.2653 149.784 68.7853 149.304 71.2653C149.224 71.9853 148.504 72.4653 147.624 72.4653C143.384 72.3853 142.024 72.3053 137.864 72.3053C133.784 72.3053 129.544 72.3853 125.464 72.4653C124.664 72.4653 124.024 71.9053 124.024 71.1853C124.024 70.5453 124.504 69.9853 125.224 69.9053C128.744 69.3453 128.904 66.3853 128.904 63.0253V25.5053C128.904 22.3853 129.144 19.1853 125.304 18.7853C124.504 18.7053 124.024 18.1453 124.024 17.5053C124.024 16.7053 124.664 16.1453 125.464 16.1453C129.064 16.3053 132.344 16.3053 136.184 16.3053C140.184 16.3053 144.264 16.2253 148.024 16.1453C148.824 16.1453 149.304 16.6253 149.304 17.2653V27.8253C149.304 28.2253 148.904 28.7053 148.264 28.7053C147.624 28.7053 147.304 28.2253 147.224 27.8253C146.904 23.0253 147.144 18.6253 139.864 18.6253H135.144C134.024 18.6253 133.384 19.2653 133.384 20.2253V40.8653C133.384 41.5853 133.864 42.1453 134.744 42.1453H140.904C144.664 42.1453 144.664 38.5453 144.664 36.0653C144.664 35.6653 145.064 35.2653 145.704 35.2653C146.424 35.2653 146.744 35.6653 146.744 36.0653V51.1053C146.744 51.5053 146.344 51.9053 145.704 51.9053C145.064 51.9053 144.664 51.5053 144.664 51.0253C144.744 48.3853 144.984 44.2253 140.824 44.2253H134.744C133.864 44.2253 133.384 44.7853 133.384 45.5053V62.3053C133.384 68.7053 134.904 70.2253 140.024 70.2253C147.384 70.2253 148.104 65.4253 149.224 60.4653C149.304 60.0653 149.704 59.6653 150.344 59.6653ZM170.168 44.3053C176.728 44.3053 179.368 37.1053 179.368 31.5053C179.368 25.9053 177.688 18.1453 169.208 18.1453C168.488 18.1453 167.368 18.2253 166.728 18.3053C165.447 18.4653 165.128 19.1853 165.128 20.0653V40.6253C165.128 43.1853 167.688 44.3053 170.168 44.3053ZM191.288 69.9053C192.168 69.9853 192.648 70.4653 192.648 71.1053C192.648 71.8253 192.008 72.3853 191.208 72.3853C190.248 72.3053 189.288 72.3053 188.408 72.3053C187.448 72.3053 186.168 72.3053 185.128 72.3853C184.488 72.4653 183.848 72.1453 183.608 71.6653L170.968 46.9453C170.808 46.5453 170.328 46.3053 169.848 46.3853C168.568 46.3853 167.448 46.3053 166.168 46.1453C165.608 46.0653 165.128 46.4653 165.128 46.9453V62.6253C165.128 65.9053 164.888 69.1853 169.128 69.7453C169.848 69.9053 170.328 70.3853 170.328 71.0253C170.408 71.7453 169.688 72.3853 168.728 72.3853C166.728 72.3053 165.048 72.3053 162.808 72.3053C161.448 72.3053 159.128 72.2253 157.128 72.3853C156.088 72.4653 155.368 71.8253 155.368 71.1053C155.368 70.4653 155.848 69.9053 156.648 69.8253C160.888 69.1853 160.648 65.8253 160.648 62.5453V25.5853C160.648 22.1453 160.888 19.2653 156.728 18.7853C155.848 18.7053 155.368 18.0653 155.448 17.4253C155.528 16.7053 156.168 16.2253 157.048 16.2253C159.768 16.3053 160.248 16.3053 163.288 16.3053C165.128 16.3053 167.768 16.1453 170.168 16.1453C180.408 16.1453 184.168 24.5453 184.168 30.7853C184.168 36.4653 182.248 42.5453 175.928 45.0253C175.448 45.2653 175.208 45.7453 175.448 46.2253L186.568 67.2653C187.528 69.1053 189.128 69.7453 191.288 69.9053ZM213.611 24.1453L207.131 50.4653C207.051 50.8653 207.211 51.1853 207.771 51.1853H219.211C219.691 51.1853 219.931 50.8653 219.851 50.4653L213.611 24.1453ZM215.851 15.9853L227.131 63.2653C227.771 66.1453 228.411 68.5453 232.251 69.5853C233.051 69.8253 233.371 70.3853 233.291 71.0253C233.291 71.7453 232.571 72.3053 231.611 72.3053C228.011 72.3053 224.491 72.3053 220.891 72.3053C219.931 72.3053 219.371 71.7453 219.371 71.0253C219.371 70.3853 219.771 69.8253 220.571 69.7453C221.691 69.6653 222.891 69.3453 223.291 68.3853C223.851 67.0253 222.891 63.5853 222.571 62.1453L220.651 54.0653C220.571 53.6653 220.251 53.3453 219.691 53.3453H207.211C206.651 53.3453 206.331 53.5853 206.251 54.0653L204.251 62.3053C203.691 64.4653 203.291 66.7053 203.771 67.9853C204.091 68.9453 205.131 69.5053 206.571 69.6653C207.371 69.8253 207.851 70.3053 207.851 70.9453C207.851 71.7453 207.211 72.3053 206.251 72.3053C205.211 72.2253 202.731 72.2253 201.531 72.2253C199.611 72.2253 198.411 72.2253 197.131 72.3053C196.091 72.3053 195.451 71.6653 195.371 70.8653C195.371 70.2253 195.771 69.6653 196.571 69.4253C200.171 68.7053 200.811 64.5453 201.451 61.9853L212.811 15.9853C212.971 15.3453 213.531 14.8653 214.331 14.8653C215.051 14.8653 215.691 15.3453 215.851 15.9853Z" fill="#F4F1E8"/>
<path d="M15.9 93.6553H20.1C20.4 93.6553 20.6 93.8053 20.55 94.0553C20.5 94.2553 20.25 94.4553 19.95 94.4553H15.75C15.35 94.4553 15.15 94.7553 15.1 95.0053L11.65 113.905C11.6 114.205 12 114.305 12.15 114.105L15.85 109.555C16 109.405 16.25 109.355 16.45 109.505C16.65 109.605 16.65 109.805 16.55 109.955L14.65 112.655C14.05 113.455 12.25 116.105 10.8 116.105C10 116.105 9.55 115.055 9.5 114.055C9.5 113.505 9.6 112.955 9.7 112.405C9.75 112.105 12.85 95.0053 12.85 95.0053C12.9 94.7553 12.75 94.4553 12.35 94.4553H11.25C10.9 94.4553 10.7 94.2553 10.75 93.9553C10.8 93.7553 10.95 93.5553 11.25 93.5053C13.7 92.9053 14.65 90.5053 15.05 88.3553C15.1 88.1553 15.25 87.9053 15.75 87.9053C16.2 87.9053 16.35 88.1553 16.3 88.4053L15.45 93.0553C15.4 93.3553 15.55 93.6553 15.9 93.6553ZM33.5258 92.5053C35.1758 92.5053 35.4758 93.6553 35.3758 94.5553C35.2258 95.5553 34.6258 96.4553 33.5258 96.4553C32.4758 96.4553 32.6758 95.0053 31.4258 95.0053C27.4758 95.0053 25.0258 105.355 24.4758 107.705L23.1258 114.855C23.0758 115.105 22.8758 115.305 22.5758 115.305H21.7258C21.3258 115.305 21.0758 115.005 21.1258 114.705C21.5758 112.455 23.4758 101.905 23.4758 101.905L24.9758 94.4553C25.0258 94.2053 24.6758 94.1053 24.5258 94.3053L20.5758 98.9053C20.4258 99.0553 20.1758 99.1053 19.9758 98.9553C19.8258 98.8553 19.7758 98.6553 19.8758 98.5053L21.7758 95.8053C22.4258 95.0553 24.0258 92.3553 25.4758 92.3553C26.2758 92.3553 26.6758 93.4553 26.7258 94.4053C26.7258 94.9553 26.6258 95.5053 26.5258 96.0553C26.5258 96.0553 25.8258 99.5553 25.7758 99.7553C25.7258 100.005 26.0758 100.055 26.1758 99.8553C29.0258 93.5553 32.1758 92.5053 33.5258 92.5053ZM46.7441 101.405L46.8441 100.655C47.1441 98.9053 47.7941 93.4553 44.0441 93.4553C38.6441 93.4553 36.3441 105.155 36.5441 109.255C36.6441 110.655 36.7441 113.355 38.8941 113.355C43.1441 113.355 46.2441 104.005 46.7441 101.405ZM51.3941 109.555C51.6441 109.655 51.6941 109.905 51.5941 110.055C51.1941 110.605 50.2441 111.955 49.2441 113.255C48.0441 114.755 46.6941 116.205 45.9441 116.205C45.2441 116.205 44.8941 115.355 44.8441 114.255C44.7941 113.205 44.8441 111.705 45.1441 109.905C45.1941 109.655 44.7941 109.555 44.6941 109.805C43.3941 112.755 41.2941 116.205 38.2941 116.205C34.5941 116.205 34.1941 112.055 34.0941 110.055C33.8941 105.555 37.7941 92.4053 44.3941 92.4053C46.3941 92.4053 47.4941 93.2053 48.1941 94.8553C48.2441 95.0553 48.5941 95.1553 48.7441 94.9053L49.4441 93.5053C49.5441 93.3553 49.6441 93.2553 49.8941 93.2553C50.1941 93.2553 50.3941 93.5053 50.3441 93.7553L46.4941 113.855C46.4441 114.205 46.9941 114.405 47.1941 114.155L50.7941 109.705C50.9441 109.505 51.1941 109.455 51.3941 109.555ZM64.543 92.4053C67.343 92.4053 69.493 95.4053 69.243 100.655C68.843 109.455 63.693 116.155 59.193 116.155C55.943 116.155 53.543 114.205 55.043 107.855L57.743 94.5053C57.793 94.2553 57.443 94.1053 57.293 94.3053L53.443 98.9053C53.293 99.0553 53.043 99.1553 52.843 99.0053C52.693 98.8553 52.643 98.6553 52.743 98.5553L54.643 95.8553C55.293 95.0553 56.893 92.4053 58.343 92.4053C59.143 92.4053 59.593 93.4553 59.643 94.4053C59.693 94.9553 59.543 95.5553 59.493 96.1053C59.393 96.4053 57.143 107.255 57.143 107.255C56.343 111.405 56.893 113.455 59.443 113.455C63.793 113.455 68.193 107.955 68.343 100.655C68.443 96.1553 66.843 94.2553 65.893 94.2553C64.193 94.2553 63.943 95.7553 62.943 95.7553C62.343 95.7553 61.643 94.9553 61.893 93.9053C62.193 92.7553 63.593 92.4053 64.543 92.4053ZM79.9629 93.5553C76.1629 93.5553 74.0629 99.7053 73.4129 102.955C73.3629 103.255 73.6129 103.505 73.9629 103.455C78.3629 102.705 82.8129 100.705 82.6129 96.6553C82.5129 95.1053 81.9129 93.5553 79.9629 93.5553ZM82.8629 110.455C83.0629 110.505 83.1129 110.755 83.0129 110.905C81.7629 112.905 79.0129 116.155 75.8629 116.155C70.4629 116.155 70.7129 107.905 71.2629 105.005C71.8629 101.555 74.5629 92.3553 80.4129 92.3553C83.2629 92.3553 84.5129 94.5053 84.6129 96.7053C84.8629 101.755 79.0629 103.505 73.7129 104.055C73.4129 104.055 73.2129 104.255 73.1629 104.505C73.1629 104.655 73.1629 104.805 73.1129 105.005C72.8129 107.355 72.7129 113.405 77.0629 113.405C79.3629 113.405 81.0629 112.055 82.2129 110.655C82.3629 110.455 82.6129 110.305 82.8629 110.455ZM95.2055 77.3553C95.5555 77.4553 95.8055 77.7553 95.7055 78.1053C95.3555 79.6053 95.0555 80.9053 94.8055 82.4553L88.9055 114.005C88.8555 114.305 89.2055 114.355 89.3055 114.205L93.0555 109.605C93.2055 109.405 93.5055 109.355 93.7555 109.505C93.9555 109.655 93.9555 109.855 93.8555 110.005L91.9555 112.705C91.3055 113.505 89.7055 116.155 88.2555 116.155C87.4555 116.155 87.0055 115.105 86.9555 114.105C86.9555 113.555 87.0555 113.005 87.1055 112.455C87.5555 110.055 92.4055 84.2553 92.4055 84.2553C92.6555 82.8053 93.2555 80.7553 90.5055 80.6053C90.3055 80.6053 90.1055 80.5053 90.0055 80.4053C89.8555 80.2053 89.8555 79.9053 90.1055 79.7053C91.1555 78.7053 93.4555 77.4553 94.7055 77.3553C94.8555 77.3053 95.0555 77.3553 95.2055 77.3553ZM118.498 115.105C124.348 115.105 126.198 103.405 125.998 99.3053C125.948 97.9053 125.698 95.1053 123.548 95.1053C119.198 95.1053 116.648 101.755 115.798 106.155L115.398 107.905C115.048 109.655 114.748 115.105 118.498 115.105ZM123.948 92.3553C127.648 92.3553 128.048 96.5053 128.148 98.5053C128.348 103.005 125.148 116.155 118.148 116.155C116.948 116.155 115.348 115.605 114.648 114.305C114.548 114.155 114.248 114.155 114.198 114.355L112.648 122.505C112.398 123.955 111.998 125.405 113.898 125.655C114.248 125.655 114.448 125.955 114.398 126.205C114.298 126.555 113.948 126.855 113.498 126.855C112.648 126.805 111.798 126.755 110.948 126.755C110.048 126.755 109.148 126.805 108.248 126.855C107.798 126.855 107.498 126.555 107.548 126.205C107.598 125.955 107.898 125.655 108.248 125.655C110.248 125.405 110.398 123.955 110.648 122.505L115.698 94.4553C115.748 94.2053 115.398 94.1053 115.248 94.3053L111.448 98.9053C111.298 99.0553 110.998 99.1053 110.798 99.0053C110.648 98.8553 110.598 98.6553 110.698 98.5053L112.598 95.8053C113.248 95.0053 114.848 92.3553 116.348 92.3553C117.098 92.3553 117.548 93.4553 117.598 94.4053C117.598 94.9553 117.498 95.5053 117.398 96.0553C117.348 96.3553 116.898 98.8553 116.648 100.105C116.598 100.355 116.948 100.405 116.998 100.255C118.298 97.0053 120.548 92.3553 123.948 92.3553ZM138.907 77.3553C139.257 77.4553 139.507 77.7553 139.407 78.1053C139.057 79.6053 138.757 80.9053 138.507 82.4553L132.607 114.005C132.557 114.305 132.907 114.355 133.007 114.205L136.757 109.605C136.907 109.405 137.207 109.355 137.457 109.505C137.657 109.655 137.657 109.855 137.557 110.005L135.657 112.705C135.007 113.505 133.407 116.155 131.957 116.155C131.157 116.155 130.707 115.105 130.657 114.105C130.657 113.555 130.757 113.005 130.807 112.455C131.257 110.055 136.107 84.2553 136.107 84.2553C136.357 82.8053 136.957 80.7553 134.207 80.6053C134.007 80.6053 133.807 80.5053 133.707 80.4053C133.557 80.2053 133.557 79.9053 133.807 79.7053C134.857 78.7053 137.157 77.4553 138.407 77.3553C138.557 77.3053 138.757 77.3553 138.907 77.3553ZM152.359 101.405L152.459 100.655C152.759 98.9053 153.409 93.4553 149.659 93.4553C144.259 93.4553 141.959 105.155 142.159 109.255C142.259 110.655 142.359 113.355 144.509 113.355C148.759 113.355 151.859 104.005 152.359 101.405ZM157.009 109.555C157.259 109.655 157.309 109.905 157.209 110.055C156.809 110.605 155.859 111.955 154.859 113.255C153.659 114.755 152.309 116.205 151.559 116.205C150.859 116.205 150.509 115.355 150.459 114.255C150.409 113.205 150.459 111.705 150.759 109.905C150.809 109.655 150.409 109.555 150.309 109.805C149.009 112.755 146.909 116.205 143.909 116.205C140.209 116.205 139.809 112.055 139.709 110.055C139.509 105.555 143.409 92.4053 150.009 92.4053C152.009 92.4053 153.109 93.2053 153.809 94.8553C153.859 95.0553 154.209 95.1553 154.359 94.9053L155.059 93.5053C155.159 93.3553 155.259 93.2553 155.509 93.2553C155.809 93.2553 156.009 93.5053 155.959 93.7553L152.109 113.855C152.059 114.205 152.609 114.405 152.809 114.155L156.409 109.705C156.559 109.505 156.809 109.455 157.009 109.555ZM177.207 109.555C177.407 109.655 177.407 109.855 177.307 110.005L175.407 112.705C174.757 113.505 173.157 116.155 171.707 116.155C170.907 116.155 170.557 115.105 170.507 114.105C170.457 113.555 170.557 113.005 170.657 112.455C170.807 111.705 173.607 97.8053 173.607 97.8053C173.857 96.9053 173.957 95.1053 172.207 95.1053C166.807 95.1053 163.607 104.105 162.807 108.605L161.707 114.905C161.657 115.155 161.457 115.305 161.157 115.305H160.257C159.857 115.305 159.607 115.005 159.657 114.705C160.857 107.855 161.957 101.205 163.307 94.4553C163.357 94.2053 163.007 94.1053 162.857 94.3053L158.907 98.9053C158.757 99.0553 158.507 99.1053 158.307 98.9553C158.157 98.8553 158.107 98.6553 158.207 98.5053L160.107 95.8053C160.757 95.0053 162.557 92.3553 164.007 92.3553C164.807 92.3553 165.157 93.4053 165.207 94.3553C165.207 94.9553 165.107 95.5053 165.007 96.0553C164.957 96.4053 164.257 100.055 164.057 101.055C164.057 101.255 164.307 101.305 164.357 101.155C165.807 98.0053 169.057 92.3553 173.007 92.3553C176.357 92.3553 176.007 95.8053 175.657 97.5553L172.307 114.055C172.257 114.305 172.607 114.405 172.757 114.255L176.657 109.605C176.757 109.455 177.007 109.405 177.207 109.555ZM197.568 109.555C197.768 109.655 197.768 109.855 197.668 110.005L195.768 112.705C195.118 113.505 193.518 116.155 192.068 116.155C191.268 116.155 190.918 115.105 190.868 114.105C190.818 113.555 190.918 113.005 191.018 112.455C191.168 111.705 193.968 97.8053 193.968 97.8053C194.218 96.9053 194.318 95.1053 192.568 95.1053C187.168 95.1053 183.968 104.105 183.168 108.605L182.068 114.905C182.018 115.155 181.818 115.305 181.518 115.305H180.618C180.218 115.305 179.968 115.005 180.018 114.705C181.218 107.855 182.318 101.205 183.668 94.4553C183.718 94.2053 183.368 94.1053 183.218 94.3053L179.268 98.9053C179.118 99.0553 178.868 99.1053 178.668 98.9553C178.518 98.8553 178.468 98.6553 178.568 98.5053L180.468 95.8053C181.118 95.0053 182.918 92.3553 184.368 92.3553C185.168 92.3553 185.518 93.4053 185.568 94.3553C185.568 94.9553 185.468 95.5053 185.368 96.0553C185.318 96.4053 184.618 100.055 184.418 101.055C184.418 101.255 184.668 101.305 184.718 101.155C186.168 98.0053 189.418 92.3553 193.368 92.3553C196.718 92.3553 196.368 95.8053 196.018 97.5553L192.668 114.055C192.618 114.305 192.968 114.405 193.118 114.255L197.018 109.605C197.118 109.455 197.368 109.405 197.568 109.555ZM208.43 93.5553C204.63 93.5553 202.53 99.7053 201.88 102.955C201.83 103.255 202.08 103.505 202.43 103.455C206.83 102.705 211.28 100.705 211.08 96.6553C210.98 95.1053 210.38 93.5553 208.43 93.5553ZM211.33 110.455C211.53 110.505 211.58 110.755 211.48 110.905C210.23 112.905 207.48 116.155 204.33 116.155C198.93 116.155 199.18 107.905 199.73 105.005C200.33 101.555 203.03 92.3553 208.88 92.3553C211.73 92.3553 212.98 94.5053 213.08 96.7053C213.33 101.755 207.53 103.505 202.18 104.055C201.88 104.055 201.68 104.255 201.63 104.505C201.63 104.655 201.63 104.805 201.58 105.005C201.28 107.355 201.18 113.405 205.53 113.405C207.83 113.405 209.53 112.055 210.68 110.655C210.83 110.455 211.08 110.305 211.33 110.455ZM228.204 92.5053C229.854 92.5053 230.154 93.6553 230.054 94.5553C229.904 95.5553 229.304 96.4553 228.204 96.4553C227.154 96.4553 227.354 95.0053 226.104 95.0053C222.154 95.0053 219.704 105.355 219.154 107.705L217.804 114.855C217.754 115.105 217.554 115.305 217.254 115.305H216.404C216.004 115.305 215.754 115.005 215.804 114.705C216.254 112.455 218.154 101.905 218.154 101.905L219.654 94.4553C219.704 94.2053 219.354 94.1053 219.204 94.3053L215.254 98.9053C215.104 99.0553 214.854 99.1053 214.654 98.9553C214.504 98.8553 214.454 98.6553 214.554 98.5053L216.454 95.8053C217.104 95.0553 218.704 92.3553 220.154 92.3553C220.954 92.3553 221.354 93.4553 221.404 94.4053C221.404 94.9553 221.304 95.5053 221.204 96.0553C221.204 96.0553 220.504 99.5553 220.454 99.7553C220.404 100.005 220.754 100.055 220.854 99.8553C223.704 93.5553 226.854 92.5053 228.204 92.5053Z" fill="#F4F1E8"/>
</svg>
